<svg width="11" height="10" viewBox="0 0 11 10" fill="none" xmlns="http://www.w3.org/2000/svg">
<path fill-rule="evenodd" clip-rule="evenodd" d="M0.555161 1.56206C0.555161 1.1787 0.865939 0.86792 1.2493 0.86792H9.57901C9.96237 0.86792 10.2732 1.1787 10.2732 1.56206C10.2732 1.94543 9.96237 2.2562 9.57901 2.2562H1.2493C0.865939 2.2562 0.555161 1.94543 0.555161 1.56206Z" fill="black"/>
<path fill-rule="evenodd" clip-rule="evenodd" d="M0.555161 5.03277C0.555161 4.64941 0.865939 4.33863 1.2493 4.33863H9.57901C9.96237 4.33863 10.2732 4.64941 10.2732 5.03277C10.2732 5.41614 9.96237 5.72692 9.57901 5.72692H1.2493C0.865939 5.72692 0.555161 5.41614 0.555161 5.03277Z" fill="black"/>
<path fill-rule="evenodd" clip-rule="evenodd" d="M0.555161 8.50349C0.555161 8.12012 0.865939 7.80934 1.2493 7.80934H9.57901C9.96237 7.80934 10.2732 8.12012 10.2732 8.50349C10.2732 8.88685 9.96237 9.19763 9.57901 9.19763H1.2493C0.865939 9.19763 0.555161 8.88685 0.555161 8.50349Z" fill="black"/>
</svg>
